<?xml version="1.0" encoding="utf-8"?>
<!-- Generator: Adobe Illustrator 26.0.2, SVG Export Plug-In . SVG Version: 6.00 Build 0)  -->
<svg version="1.1" id="Layer_1" xmlns="http://www.w3.org/2000/svg" xmlns:xlink="http://www.w3.org/1999/xlink" x="0px" y="0px"
	 viewBox="0 0 1280 1280" style="enable-background:new 0 0 1280 1280;" xml:space="preserve">
<style type="text/css">
	.st0{fill:#1ED760;}
	.st1{opacity:0.08;}
	.st2{opacity:0.1;}
	.st3{fill:#FFFFFF;}
</style>
<g>
	<path class="st0" d="M632.42,51c-514.17,8.78-514.07,773.6,0.02,782.29c514.13-8.77,514.09-773.57-0.02-782.28L632.42,51z"/>
	<g>
		<path d="M811.79,615.14c-7.02,11.52-22.04,15.13-33.52,8.11c-91.85-56.14-207.46-68.82-343.62-37.72
			c-13.12,3.01-26.2-5.22-29.19-18.33c-3-13.12,5.18-26.2,18.34-29.19c149-34.06,276.8-19.4,379.9,43.6
			C815.2,588.66,818.84,603.66,811.79,615.14L811.79,615.14z"/>
		<path d="M859.67,508.65c-8.85,14.35-27.61,18.86-41.95,10.04c-105.12-64.61-265.4-83.33-389.76-45.58
			c-16.13,4.87-33.16-4.22-38.06-20.32C363.88,339.78,916.66,405.7,859.67,508.65L859.67,508.65L859.67,508.65z"/>
		<path d="M863.78,397.75c-126.08-74.88-334.06-81.76-454.42-45.23c-19.33,5.86-39.77-5.05-45.62-24.38
			c-5.86-19.34,5.04-39.76,24.39-45.64c138.17-41.94,367.85-33.84,512.99,52.32c17.39,10.32,23.09,32.77,12.78,50.13
			C903.62,402.34,881.11,408.07,863.78,397.75L863.78,397.75L863.78,397.75z"/>
	</g>
</g>
<g>
	<path class="st0" d="M162.22,1006.21c-46.51-11.09-54.79-18.87-54.79-35.23c0-15.45,14.55-25.85,36.18-25.85
		c21.86-0.97,43.11,10.49,65.86,24.71c0.81-0.12,1.53-0.57,2.01-1.24l22.71-32.01c0.93-1.32,0.68-3.14-0.58-4.14
		c-25.95-20.82-55.16-30.94-89.32-30.94c-110.39,0.73-115.55,137.08-2.74,148.49c44.5,10.26,52.01,18.84,52.01,34.19
		c0,17.01-15.19,27.59-39.63,27.59c-28.17,0.96-50.36-11.72-76.29-31.32c-0.82,0.07-1.57,0.45-2.09,1.08l-25.46,30.3
		c-1.07,1.26-0.93,3.14,0.3,4.22c28.82,25.73,64.26,39.32,102.51,39.32C260.04,1157.91,279.73,1022.66,162.22,1006.21
		L162.22,1006.21z"/>
	<path class="st0" d="M364.41,960.35c-23.45,0-42.69,9.24-58.55,28.16V967.2c0-1.68-1.36-3.05-3.04-3.05h-41.64
		c-1.68,0-3.04,1.37-3.04,3.05v236.73c0,1.68,1.36,3.05,3.04,3.05h41.64c1.68,0,3.04-1.37,3.04-3.05v-74.73
		c15.87,17.81,35.11,26.51,58.55,26.51C480.4,1156.78,480.39,959.19,364.41,960.35z M304.81,1058.04
		c-0.76-72.25,100.1-73.68,98.88,0l0,0C405.35,1132.05,303.94,1130.15,304.81,1058.04z"/>
	<path class="st0" d="M565.17,960.35L565.17,960.35c-130.38-0.56-131.8,195.97-0.68,195.73
		C695.65,1156.65,696.4,960.13,565.17,960.35z M565.17,1113.81c-68.04,1.17-69.48-112.1-0.69-110.89
		C632.96,1001.76,634.44,1115.01,565.17,1113.81z"/>
	<path class="st0" d="M784.76,964.15h-45.82V917.3c0-1.68-1.36-3.05-3.04-3.05h-41.64c-1.69,0-3.05,1.37-3.05,3.05v46.85h-20.02
		c-1.68,0-3.03,1.37-3.03,3.05v35.79c0,1.68,1.36,3.05,3.03,3.05h20.02c4.95,47.76-23.47,153.82,55.36,149
		c9.4,0.67,38.05-4.57,40.55-12.35v-34.08c0.07-2.2-2.49-3.77-4.41-2.73c-15.71,8.17-45.34,11.54-43.77-13.76v-86.06h45.82
		c1.68,0,3.04-1.37,3.04-3.05v-35.79C787.86,965.5,786.47,964.18,784.76,964.15z"/>
	<path class="st0" d="M944.42,964.34c-1.18-17.28,3.69-31.05,21.05-30.23c8.68,0,15.65,1.72,23.46,4.33c1.93,0.68,4.06-0.88,4-2.9
		v-35.09c0-1.34-0.86-2.53-2.16-2.92c-50.86-15.66-98.97,2.46-93.4,66.45h-20.01c-1.68,0-3.05,1.37-3.05,3.05v35.97
		c0,1.68,1.38,3.05,3.05,3.05h20.01v142.84c0,1.68,1.36,3.05,3.04,3.05h41.64c1.68,0,3.05-1.37,3.05-3.05v-142.83h38.88l59.56,142.8
		c-10.9,24.77-26.97,19.94-45.45,11.48c-0.74-0.41-1.62-0.48-2.42-0.23c-1.62-1.24-15.14,31.9-15.91,32.61
		c-0.67,1.46-0.1,3.18,1.31,3.94c14.73,7.98,28.03,11.39,44.47,11.39c30.75,0,47.74-14.32,62.73-52.86l72.24-186.68
		c0.8-1.89-0.74-4.23-2.83-4.16h-43.35c-1.3,0-2.46,0.83-2.89,2.05l-44.41,126.85l-48.64-126.93c-0.44-1.18-1.58-1.96-2.84-1.96
		L944.42,964.34L944.42,964.34L944.42,964.34z"/>
	<path class="st0" d="M851.85,964.15h-41.64c-1.68,0-3.05,1.37-3.05,3.05v181.68c0,1.68,1.37,3.05,3.05,3.05h41.64
		c1.68,0,3.05-1.37,3.05-3.05V967.22c0-1.69-1.37-3.06-3.06-3.05L851.85,964.15z"/>
	<path class="st0" d="M831.27,881.43c-39.29,0.66-39.26,59.06,0,59.73C870.52,940.49,870.52,882.08,831.27,881.43L831.27,881.43z"/>
	<path class="st0" d="M1202.73,996.1c4.23-1.19,7.17-4.3,7.14-9.34c0.41-12.43-17.18-9.56-25.56-9.81v30.76h5.85v-10.65h6.42
		l7.46,10.65h6.99L1202.73,996.1z M1197.77,991.96h-7.63v-9.73h7.63C1205.86,981.75,1205.91,992.32,1197.77,991.96z"/>
	<path class="st0" d="M1196.23,963.8c-38.38,0.18-38.72,58.56-0.16,58.77h0C1234.43,1022.37,1234.8,964,1196.23,963.8z
		 M1196.08,1019.64c-34.55,0.03-34.3-52.96,0.15-52.92C1230.78,966.68,1230.55,1019.67,1196.08,1019.64z"/>
	<path class="st0" d="M1202.73,996.1c4.23-1.19,7.17-4.3,7.14-9.34c0.41-12.43-17.18-9.56-25.56-9.81v30.76h5.85v-10.65h6.42
		l7.46,10.65h6.99L1202.73,996.1z M1197.77,991.96h-7.63v-9.73h7.63C1205.86,981.75,1205.91,992.32,1197.77,991.96z"/>
	<path class="st0" d="M1202.73,996.1c4.23-1.19,7.17-4.3,7.14-9.34c0.41-12.43-17.18-9.56-25.56-9.81v30.76h5.85v-10.65h6.42
		l7.46,10.65h6.99L1202.73,996.1z M1197.77,991.96h-7.63v-9.73h7.63C1205.86,981.75,1205.91,992.32,1197.77,991.96z"/>
</g>
</svg>
